<svg width="48" height="48" viewBox="0 0 48 48" fill="none" xmlns="http://www.w3.org/2000/svg">
<rect x="0.75" y="0.75" width="46.5" height="46.5" rx="7.25" stroke="#D0D0D0" stroke-width="1.5"/>
<path d="M34.5 24C34.5 29.796 29.8012 34.5 24 34.5C18.1988 34.5 13.5 29.796 13.5 24C13.5 18.1987 18.1988 13.5 24 13.5C29.8012 13.5 34.5 18.1987 34.5 24Z" fill="#121212"/>
<path d="M28.9216 21.343C28.8643 21.3765 27.5003 22.0819 27.5003 23.6459C27.5646 25.4296 29.2216 26.0551 29.25 26.0551C29.2216 26.0885 28.9998 26.9072 28.343 27.7654C27.8217 28.5047 27.2432 29.25 26.3646 29.25C25.5289 29.25 25.2289 28.7573 24.2646 28.7573C23.229 28.7573 22.936 29.25 22.1431 29.25C21.2646 29.25 20.6431 28.4647 20.0935 27.7324C19.3793 26.7739 18.7723 25.2698 18.7509 23.8256C18.7365 23.0603 18.8939 22.308 19.2936 21.669C19.8577 20.777 20.8649 20.1714 21.9647 20.1515C22.8074 20.125 23.5574 20.6906 24.0717 20.6906C24.5646 20.6906 25.486 20.1515 26.5286 20.1515C26.9786 20.1519 28.1786 20.2782 28.9216 21.343ZM24.0005 19.9987C23.8505 19.2998 24.2646 18.6009 24.6503 18.1551C25.1432 17.6159 25.9216 17.25 26.5929 17.25C26.6357 17.9489 26.3641 18.6343 25.8787 19.1335C25.4432 19.6727 24.6932 20.0785 24.0005 19.9987Z" fill="white"/>
</svg>

