<svg width="224" height="224" viewBox="0 0 224 224" fill="none" xmlns="http://www.w3.org/2000/svg">
<circle opacity="0.1" cx="112" cy="112" r="112" fill="#171717"/>
<circle opacity="0.15" cx="112" cy="112" r="77.1391" fill="#171717"/>
<circle opacity="0.25" cx="112" cy="112" r="36.3444" fill="#171717"/>
<circle opacity="0.5" cx="112" cy="112" r="14.0927" fill="#171717"/>
<path fill-rule="evenodd" clip-rule="evenodd" d="M112 105.718C114.458 105.718 116.45 107.71 116.45 110.168V110.436C116.45 111.42 116.143 112.378 115.572 113.179L112.009 118.166C112.005 118.172 111.996 118.172 111.991 118.166L108.429 113.179C107.857 112.378 107.55 111.42 107.55 110.436V110.168C107.55 107.71 109.542 105.718 112 105.718ZM113.955 109.749C113.819 109.154 113.42 108.653 112.87 108.388C112.32 108.124 111.68 108.124 111.13 108.388C110.581 108.653 110.181 109.154 110.046 109.749C109.91 110.343 110.052 110.968 110.433 111.445C110.813 111.922 111.39 112.199 112 112.199C112.61 112.199 113.187 111.922 113.568 111.445C113.948 110.968 114.09 110.343 113.955 109.749Z" fill="#414141"/>
<path d="M115.572 113.179L116.792 114.051V114.051L115.572 113.179ZM112.009 118.166L110.788 117.295L110.788 117.295L112.009 118.166ZM111.991 118.166L113.212 117.295L113.212 117.295L111.991 118.166ZM108.429 113.179L107.208 114.051H107.208L108.429 113.179ZM112.87 108.388L112.219 109.74L112.87 108.388ZM113.955 109.749L115.417 109.415L113.955 109.749ZM111.13 108.388L111.781 109.74L111.13 108.388ZM110.046 109.749L111.508 110.082L110.046 109.749ZM110.433 111.445L109.26 112.38L109.26 112.38L110.433 111.445ZM117.95 110.168C117.95 106.882 115.286 104.218 112 104.218V107.218C113.63 107.218 114.95 108.539 114.95 110.168H117.95ZM117.95 110.436V110.168H114.95V110.436H117.95ZM116.792 114.051C117.546 112.996 117.95 111.732 117.95 110.436H114.95C114.95 111.107 114.741 111.761 114.351 112.307L116.792 114.051ZM113.23 119.038L116.792 114.051L114.351 112.307L110.788 117.295L113.23 119.038ZM110.771 119.038C111.373 119.882 112.627 119.882 113.23 119.038L110.788 117.295C111.382 116.463 112.618 116.463 113.212 117.295L110.771 119.038ZM107.208 114.051L110.771 119.038L113.212 117.295L109.649 112.307L107.208 114.051ZM106.05 110.436C106.05 111.732 106.455 112.996 107.208 114.051L109.649 112.307C109.259 111.761 109.05 111.107 109.05 110.436H106.05ZM106.05 110.168V110.436H109.05V110.168H106.05ZM112 104.218C108.714 104.218 106.05 106.882 106.05 110.168H109.05C109.05 108.539 110.371 107.218 112 107.218V104.218ZM112.219 109.74C112.358 109.806 112.458 109.933 112.492 110.082L115.417 109.415C115.18 108.375 114.482 107.5 113.521 107.037L112.219 109.74ZM111.781 109.74C111.92 109.673 112.081 109.673 112.219 109.74L113.521 107.037C112.56 106.574 111.44 106.574 110.479 107.037L111.781 109.74ZM111.508 110.082C111.542 109.933 111.643 109.806 111.781 109.74L110.479 107.037C109.518 107.5 108.821 108.375 108.583 109.415L111.508 110.082ZM111.605 110.509C111.51 110.389 111.474 110.232 111.508 110.082L108.583 109.415C108.346 110.455 108.595 111.546 109.26 112.38L111.605 110.509ZM112 110.699C111.847 110.699 111.701 110.629 111.605 110.509L109.26 112.38C109.925 113.214 110.934 113.699 112 113.699V110.699ZM112.395 110.509C112.299 110.629 112.154 110.699 112 110.699V113.699C113.067 113.699 114.075 113.214 114.74 112.38L112.395 110.509ZM112.492 110.082C112.526 110.232 112.491 110.389 112.395 110.509L114.74 112.38C115.405 111.546 115.654 110.455 115.417 109.415L112.492 110.082Z" fill="#414141"/>
</svg>
