<svg width="16" height="19" viewBox="0 0 16 19" fill="none" xmlns="http://www.w3.org/2000/svg">
<path d="M14 18.4798L2.00005 18.4798C1.33731 18.4798 0.800049 17.9425 0.800049 17.2798C0.800049 15.2949 2.03149 13.5182 3.89014 12.8216L4.25916 12.6833C6.67116 11.7793 9.32893 11.7793 11.7409 12.6833L12.11 12.8216C13.9686 13.5182 15.2 15.2949 15.2 17.2798C15.2 17.9425 14.6628 18.4798 14 18.4798Z" fill="#171717" stroke="#171717" stroke-linecap="square" stroke-linejoin="round"/>
<path d="M5.60499 7.5254C6.90198 8.90886 9.09802 8.90886 10.395 7.5254C11.5789 6.2626 11.5789 4.29756 10.395 3.03476C9.09802 1.65129 6.90198 1.6513 5.60499 3.03476C4.42111 4.29756 4.42111 6.2626 5.60499 7.5254Z" fill="#171717" stroke="#171717" stroke-width="4" stroke-linecap="round" stroke-linejoin="round"/>
</svg>
