<svg width="24" height="24" viewBox="0 0 24 24" fill="none" xmlns="http://www.w3.org/2000/svg">
<path d="M12 3.6L12.9405 3.65282L13.8692 3.8106L14.7743 4.07138L15.6446 4.43186L16.469 4.88752L17.2373 5.43261L17.9397 6.0603L18.5674 6.76268L19.1125 7.53093L19.5681 8.35537L19.9286 9.22565L20.1894 10.1308L20.3472 11.0595L20.4 12L20.3472 12.9405L20.1894 13.8692L19.9286 14.7743L19.5681 15.6446L19.1125 16.4691L18.5674 17.2373L17.9397 17.9397L17.2373 18.5674L16.469 19.1125L15.6446 19.5681L14.7743 19.9286L13.8692 20.1894L12.9405 20.3472L12 20.4L11.0595 20.3472L10.1308 20.1894L9.22563 19.9286L8.35535 19.5681L7.53091 19.1125L6.76266 18.5674L6.06028 17.9397L5.43259 17.2373L4.88749 16.4691L4.43184 15.6446L4.07136 14.7743L3.81058 13.8692L3.65279 12.9405L3.59998 12L3.65279 11.0595L3.81058 10.1308L4.07136 9.22565L4.43184 8.35537L4.88749 7.53093L5.43259 6.76268L6.06028 6.0603L6.76266 5.43261L7.53091 4.88752L8.35535 4.43186L9.22563 4.07138L10.1308 3.8106L11.0595 3.65282L12 3.6Z" fill="#C2CCDE" fill-opacity="0.25"/>
<path d="M11.9903 7.2V13.92M11.9903 16.08V16.56M12 3.6L12.9405 3.65282L13.8692 3.8106L14.7743 4.07138L15.6446 4.43186L16.469 4.88752L17.2373 5.43261L17.9397 6.0603L18.5674 6.76268L19.1125 7.53093L19.5681 8.35537L19.9286 9.22565L20.1894 10.1308L20.3472 11.0595L20.4 12L20.3472 12.9405L20.1894 13.8692L19.9286 14.7743L19.5681 15.6446L19.1125 16.4691L18.5674 17.2373L17.9397 17.9397L17.2373 18.5674L16.469 19.1125L15.6446 19.5681L14.7743 19.9286L13.8692 20.1894L12.9405 20.3472L12 20.4L11.0595 20.3472L10.1308 20.1894L9.22563 19.9286L8.35535 19.5681L7.53091 19.1125L6.76266 18.5674L6.06028 17.9397L5.43259 17.2373L4.88749 16.4691L4.43184 15.6446L4.07136 14.7743L3.81058 13.8692L3.65279 12.9405L3.59998 12L3.65279 11.0595L3.81058 10.1308L4.07136 9.22565L4.43184 8.35537L4.88749 7.53093L5.43259 6.76268L6.06028 6.0603L6.76266 5.43261L7.53091 4.88752L8.35535 4.43186L9.22563 4.07138L10.1308 3.8106L11.0595 3.65282L12 3.6Z" stroke="#414141" stroke-linecap="round" stroke-linejoin="round"/>
</svg>
