<svg width="23" height="23" viewBox="0 0 23 23" fill="none" xmlns="http://www.w3.org/2000/svg">
<path fill-rule="evenodd" clip-rule="evenodd" d="M8.79008 7.70271L8.94999 7.31433C9.25856 6.56491 9.9889 6.07579 10.7994 6.07579L13.4106 6.07579C14.2211 6.07579 14.9514 6.56491 15.26 7.31433L15.4199 7.70271H16C17.6569 7.70271 19 9.04585 19 10.7027V13.9993C19 15.6561 17.6569 16.9993 16 16.9993H8C6.34315 16.9993 5 15.6561 5 13.9993V10.7027C5 9.04585 6.34315 7.70271 8 7.70271L8.79008 7.70271Z" fill="#C2CCDE" fill-opacity="0.25"/>
<path d="M8.79008 7.70271V8.20271H9.12494L9.25243 7.89307L8.79008 7.70271ZM8.94999 7.31433L9.41234 7.5047L8.94999 7.31433ZM15.26 7.31433L15.7223 7.12397V7.12397L15.26 7.31433ZM15.4199 7.70271L14.9575 7.89307L15.085 8.20271H15.4199V7.70271ZM9.25243 7.89307L9.41234 7.5047L8.48765 7.12397L8.32774 7.51234L9.25243 7.89307ZM9.41234 7.5047C9.64376 6.94263 10.1915 6.57579 10.7994 6.57579V5.57579C9.78628 5.57579 8.87336 6.18719 8.48765 7.12397L9.41234 7.5047ZM10.7994 6.57579L13.4106 6.57579V5.57579L10.7994 5.57579V6.57579ZM13.4106 6.57579C14.0184 6.57579 14.5662 6.94263 14.7976 7.5047L15.7223 7.12397C15.3366 6.18719 14.4237 5.57579 13.4106 5.57579V6.57579ZM14.7976 7.5047L14.9575 7.89307L15.8822 7.51234L15.7223 7.12397L14.7976 7.5047ZM15.4199 8.20271H16V7.20271H15.4199V8.20271ZM16 8.20271C17.3807 8.20271 18.5 9.322 18.5 10.7027L19.5 10.7027C19.5 8.76971 17.933 7.20271 16 7.20271V8.20271ZM18.5 10.7027V13.9993L19.5 13.9993V10.7027L18.5 10.7027ZM18.5 13.9993C18.5 15.38 17.3807 16.4993 16 16.4993V17.4993C17.933 17.4993 19.5 15.9323 19.5 13.9993L18.5 13.9993ZM16 16.4993H8V17.4993H16V16.4993ZM8 16.4993C6.61929 16.4993 5.5 15.38 5.5 13.9993H4.5C4.5 15.9323 6.067 17.4993 8 17.4993V16.4993ZM5.5 13.9993V10.7027H4.5V13.9993H5.5ZM5.5 10.7027C5.5 9.322 6.61929 8.20271 8 8.20271V7.20271C6.067 7.20271 4.5 8.76971 4.5 10.7027H5.5ZM8 8.20271H8.79008V7.20271L8 7.20271V8.20271Z" fill="#414141"/>
<path d="M10.5665 9.63418C11.4618 9.15367 12.5382 9.15367 13.4335 9.63418L13.5976 9.72228C14.4803 10.1961 15.0311 11.1168 15.0311 12.1186V12.1186C15.0311 13.1204 14.4803 14.0411 13.5976 14.5149L13.4335 14.603C12.5382 15.0835 11.4618 15.0835 10.5665 14.603L10.4024 14.5149C9.51968 14.0411 8.96891 13.1204 8.96891 12.1186V12.1186C8.96891 11.1168 9.51967 10.1961 10.4024 9.72228L10.5665 9.63418Z" stroke="#414141" stroke-linecap="round" stroke-linejoin="round"/>
</svg>
