<svg width="35" height="35" viewBox="0 0 35 35" fill="none" xmlns="http://www.w3.org/2000/svg">
<path d="M22.3696 8.00024H12.7898C10.1458 8.00024 7.99988 10.1365 7.99988 12.771V18.4997V19.4577C7.99988 22.0921 10.1458 24.2284 12.7898 24.2284H14.2267C14.4854 24.2284 14.8303 24.4008 14.9931 24.6116L16.4301 26.518C17.0624 27.361 18.097 27.361 18.7292 26.518L20.1662 24.6116C20.3482 24.3721 20.6356 24.2284 20.9326 24.2284H22.3696C25.0136 24.2284 27.1595 22.0921 27.1595 19.4577V12.771C27.1595 10.1365 25.0136 8.00024 22.3696 8.00024ZM13.7478 17.58C13.2113 17.58 12.7898 17.1489 12.7898 16.6221C12.7898 16.0952 13.2209 15.6641 13.7478 15.6641C14.2746 15.6641 14.7057 16.0952 14.7057 16.6221C14.7057 17.1489 14.2842 17.58 13.7478 17.58ZM17.5797 17.58C17.0432 17.58 16.6217 17.1489 16.6217 16.6221C16.6217 16.0952 17.0528 15.6641 17.5797 15.6641C18.1066 15.6641 18.5376 16.0952 18.5376 16.6221C18.5376 17.1489 18.1161 17.58 17.5797 17.58ZM21.4116 17.58C20.8751 17.58 20.4536 17.1489 20.4536 16.6221C20.4536 16.0952 20.8847 15.6641 21.4116 15.6641C21.9385 15.6641 22.3696 16.0952 22.3696 16.6221C22.3696 17.1489 21.9481 17.58 21.4116 17.58Z" fill="#171717"/>
</svg>
