<svg width="16" height="16" viewBox="0 0 16 16" fill="none" xmlns="http://www.w3.org/2000/svg">
<path d="M12.109 9.70578C11.9748 9.64322 11.842 9.57836 11.7106 9.51126C11.1684 9.23447 10.4857 9.43511 10.2338 9.98925C9.88708 10.752 8.88526 10.9337 8.29282 10.3412L5.6505 7.6989C5.05805 7.10645 5.23972 6.10464 6.00246 5.75794C6.52765 5.51922 6.71263 4.86823 6.4384 4.36068C6.32256 4.1463 6.21279 3.92804 6.10931 3.70612C5.9028 3.26326 5.72354 2.81057 5.57175 2.35054C5.32148 1.59206 4.46038 1.16909 3.74873 1.53169L1.87327 2.48729C1.56452 2.6446 1.37294 2.96771 1.40314 3.31291C1.65731 6.21802 2.92691 8.94068 4.98897 11.0027C7.05104 13.0648 9.77371 14.3344 12.6788 14.5886C13.0242 14.6188 13.3476 14.4271 13.505 14.1181L14.5125 12.1409C14.8796 11.4203 14.4413 10.5489 13.669 10.3088C13.1385 10.1439 12.6173 9.94281 12.109 9.70578Z" fill="#C2CCDE" fill-opacity="0.25" stroke="#414141" stroke-linecap="round" stroke-linejoin="round"/>
</svg>
