<svg width="24" height="24" viewBox="0 0 24 24" fill="none" xmlns="http://www.w3.org/2000/svg">
<path d="M6.6 13.2C6.26863 13.2 6 12.9314 6 12.6L6 11.4C6 11.0686 6.26863 10.8 6.6 10.8L7.8 10.8C8.13137 10.8 8.4 11.0686 8.4 11.4L8.4 12.6C8.4 12.9314 8.13137 13.2 7.8 13.2L6.6 13.2Z" fill="#C2CCDE" fill-opacity="0.25"/>
<path d="M11.4 13.2C11.0686 13.2 10.8 12.9314 10.8 12.6L10.8 11.4C10.8 11.0686 11.0686 10.8 11.4 10.8L12.6 10.8C12.9314 10.8 13.2 11.0686 13.2 11.4L13.2 12.6C13.2 12.9314 12.9314 13.2 12.6 13.2L11.4 13.2Z" fill="#C2CCDE" fill-opacity="0.25"/>
<path d="M16.2 13.2C15.8686 13.2 15.6 12.9314 15.6 12.6L15.6 11.4C15.6 11.0686 15.8686 10.8 16.2 10.8L17.4 10.8C17.7314 10.8 18 11.0686 18 11.4L18 12.6C18 12.9314 17.7314 13.2 17.4 13.2L16.2 13.2Z" fill="#C2CCDE" fill-opacity="0.25"/>
<path d="M6.6 13.2C6.26863 13.2 6 12.9314 6 12.6L6 11.4C6 11.0686 6.26863 10.8 6.6 10.8L7.8 10.8C8.13137 10.8 8.4 11.0686 8.4 11.4L8.4 12.6C8.4 12.9314 8.13137 13.2 7.8 13.2L6.6 13.2Z" stroke="#414141" stroke-linecap="round" stroke-linejoin="round"/>
<path d="M11.4 13.2C11.0686 13.2 10.8 12.9314 10.8 12.6L10.8 11.4C10.8 11.0686 11.0686 10.8 11.4 10.8L12.6 10.8C12.9314 10.8 13.2 11.0686 13.2 11.4L13.2 12.6C13.2 12.9314 12.9314 13.2 12.6 13.2L11.4 13.2Z" stroke="#414141" stroke-linecap="round" stroke-linejoin="round"/>
<path d="M16.2 13.2C15.8686 13.2 15.6 12.9314 15.6 12.6L15.6 11.4C15.6 11.0686 15.8686 10.8 16.2 10.8L17.4 10.8C17.7314 10.8 18 11.0686 18 11.4L18 12.6C18 12.9314 17.7314 13.2 17.4 13.2L16.2 13.2Z" stroke="#414141" stroke-linecap="round" stroke-linejoin="round"/>
</svg>
