<svg width="16" height="20" viewBox="0 0 16 20" fill="none" xmlns="http://www.w3.org/2000/svg">
<path d="M14 18.7624H2.00005C1.33731 18.7624 0.800049 18.2252 0.800049 17.5624C0.800049 15.5775 2.03149 13.8009 3.89014 13.1043L4.25916 12.966C6.67117 12.062 9.32893 12.062 11.7409 12.966L12.11 13.1043C13.9686 13.8009 15.2 15.5775 15.2 17.5624C15.2 18.2252 14.6628 18.7624 14 18.7624Z" fill="#C2CCDE" fill-opacity="0.25"/>
<path d="M6.17048 9.42263C7.31887 10.0125 8.68123 10.0125 9.82961 9.42263C10.8984 8.87363 11.6641 7.8737 11.9155 6.69878L11.9826 6.3852C12.2397 5.18371 11.9651 3.92973 11.2294 2.94565L11.1216 2.80155C10.3858 1.81734 9.22891 1.23779 8.00005 1.23779C6.77118 1.23779 5.61428 1.81734 4.87846 2.80155L4.77072 2.94565C4.035 3.92973 3.76038 5.18371 4.01748 6.3852L4.08457 6.69878C4.33598 7.8737 5.10172 8.87363 6.17048 9.42263Z" fill="#C2CCDE" fill-opacity="0.25"/>
<path d="M14 18.7624H2.00005C1.33731 18.7624 0.800049 18.2252 0.800049 17.5624C0.800049 15.5775 2.03149 13.8009 3.89014 13.1043L4.25916 12.966C6.67117 12.062 9.32893 12.062 11.7409 12.966L12.11 13.1043C13.9686 13.8009 15.2 15.5775 15.2 17.5624C15.2 18.2252 14.6628 18.7624 14 18.7624Z" stroke="#414141" stroke-linecap="round" stroke-linejoin="round"/>
<path d="M6.17048 9.42263C7.31887 10.0125 8.68123 10.0125 9.82961 9.42263C10.8984 8.87363 11.6641 7.8737 11.9155 6.69878L11.9826 6.3852C12.2397 5.18371 11.9651 3.92973 11.2294 2.94565L11.1216 2.80155C10.3858 1.81734 9.22891 1.23779 8.00005 1.23779C6.77118 1.23779 5.61428 1.81734 4.87846 2.80155L4.77072 2.94565C4.035 3.92973 3.76038 5.18371 4.01748 6.3852L4.08457 6.69878C4.33598 7.8737 5.10172 8.87363 6.17048 9.42263Z" stroke="#414141" stroke-linecap="round" stroke-linejoin="round"/>
</svg>
