<svg width="28" height="25" viewBox="0 0 28 25" fill="none" xmlns="http://www.w3.org/2000/svg">
<path fill-rule="evenodd" clip-rule="evenodd" d="M0 3.12109V21.1211C0 22.7779 1.34315 24.1211 3 24.1211H25C26.6569 24.1211 28 22.7779 28 21.1211V7.12109C28 5.46424 26.6569 4.12109 25 4.12109H5.25C4.69772 4.12109 4.25 3.67338 4.25 3.12109C4.25 2.56881 4.69772 2.12109 5.25 2.12109H23.8293C23.4175 0.955901 22.3062 0.121094 21 0.121094H3C1.34315 0.121094 0 1.46424 0 3.12109ZM20 13.6211C20 12.5165 20.8954 11.6211 22 11.6211C23.1046 11.6211 24 12.5165 24 13.6211C24 14.7257 23.1046 15.6211 22 15.6211C20.8954 15.6211 20 14.7257 20 13.6211Z" fill="white"/>
</svg>
