<svg width="30" height="27" viewBox="0 0 30 27" fill="none" xmlns="http://www.w3.org/2000/svg">
<path d="M25 5.94189V4.94189C25 3.28504 23.6569 1.94189 22 1.94189H4C2.34315 1.94189 1 3.28504 1 4.94189V22.9419C1 24.5987 2.34315 25.9419 4 25.9419H26C27.6569 25.9419 29 24.5987 29 22.9419V8.94189C29 7.28504 27.6569 5.94189 26 5.94189H25ZM25 5.94189H6.25M23 17.4419C21.8954 17.4419 21 16.5465 21 15.4419C21 14.3373 21.8954 13.4419 23 13.4419C24.1046 13.4419 25 14.3373 25 15.4419C25 16.5465 24.1046 17.4419 23 17.4419Z" stroke="white" stroke-width="2" stroke-linecap="round" stroke-linejoin="round"/>
</svg>
