<svg width="25" height="19" viewBox="0 0 25 19" fill="none" xmlns="http://www.w3.org/2000/svg">
<path d="M25 15.2778C25 16.0145 24.7073 16.721 24.1864 17.242C23.6655 17.7629 22.9589 18.0556 22.2222 18.0556H2.77778C2.04107 18.0556 1.33453 17.7629 0.813592 17.242C0.292658 16.721 0 16.0145 0 15.2778V2.77778C0 2.04107 0.292658 1.33453 0.813592 0.813592C1.33453 0.292658 2.04107 0 2.77778 0H22.2222C22.9589 0 23.6655 0.292658 24.1864 0.813592C24.7073 1.33453 25 2.04107 25 2.77778V15.2778Z" fill="#006A4D"/>
<path d="M11.1111 13.5416C13.7958 13.5416 15.9722 11.3652 15.9722 8.68045C15.9722 5.99573 13.7958 3.81934 11.1111 3.81934C8.42639 3.81934 6.25 5.99573 6.25 8.68045C6.25 11.3652 8.42639 13.5416 11.1111 13.5416Z" fill="#F42A41"/>
</svg>
