<svg width="20" height="16" viewBox="0 0 20 16" fill="none" xmlns="http://www.w3.org/2000/svg">
<path fill-rule="evenodd" clip-rule="evenodd" d="M10 2.16235L16 6.96235H15C15.5523 6.96235 16 7.41007 16 7.96235V14.3624C16 14.9146 15.5523 15.3624 15 15.3624L5 15.3624C4.44772 15.3624 4 14.9146 4 14.3624L4 7.96235C4 7.41007 4.44772 6.96235 5 6.96235H4L10 2.16235ZM11.8 11.7624L11.8 8.16235H8.2L8.2 11.7624L11.8 11.7624Z" fill="#171717"/>
<path d="M18.25 8.76235L17.35 8.04235L10 2.16235L2.65 8.04235L1.75 8.76235" stroke="#171717" stroke-width="3" stroke-linecap="round" stroke-linejoin="round"/>
<path fill-rule="evenodd" clip-rule="evenodd" d="M14.8751 6.0624H16.6001V2.4624L10.6001 2.4624V2.6424L14.8751 6.0624Z" fill="#171717"/>
<path d="M16.6001 6.0624V7.0624C17.1524 7.0624 17.6001 6.61469 17.6001 6.0624L16.6001 6.0624ZM14.8751 6.0624L14.2504 6.84327C14.4277 6.98512 14.648 7.0624 14.8751 7.0624V6.0624ZM16.6001 2.4624L17.6001 2.4624C17.6001 1.91012 17.1524 1.4624 16.6001 1.4624V2.4624ZM10.6001 2.4624V1.4624C10.0478 1.4624 9.6001 1.91012 9.6001 2.4624H10.6001ZM10.6001 2.6424H9.6001C9.6001 2.94619 9.73819 3.2335 9.9754 3.42327L10.6001 2.6424ZM16.6001 5.0624H14.8751V7.0624H16.6001V5.0624ZM15.6001 2.4624V6.0624L17.6001 6.0624V2.4624L15.6001 2.4624ZM10.6001 3.4624L16.6001 3.4624V1.4624L10.6001 1.4624V3.4624ZM11.6001 2.6424V2.4624H9.6001V2.6424H11.6001ZM9.9754 3.42327L14.2504 6.84327L15.4998 5.28153L11.2248 1.86153L9.9754 3.42327Z" fill="#171717"/>
</svg>
