<svg width="20" height="20" viewBox="0 0 20 20" fill="none" xmlns="http://www.w3.org/2000/svg">
<path d="M14.3697 0H4.7899C2.14587 0 0 2.13629 0 4.77074V10.4994V11.4574C0 14.0919 2.14587 16.2282 4.7899 16.2282H6.22686C6.48552 16.2282 6.83039 16.4006 6.99325 16.6114L8.43022 18.5177C9.06248 19.3608 10.0971 19.3608 10.7294 18.5177L12.1663 16.6114C12.3484 16.3719 12.6357 16.2282 12.9327 16.2282H14.3697C17.0137 16.2282 19.1596 14.0919 19.1596 11.4574V4.77074C19.1596 2.13629 17.0137 0 14.3697 0ZM5.74788 9.57979C5.21141 9.57979 4.7899 9.1487 4.7899 8.62181C4.7899 8.09492 5.22099 7.66383 5.74788 7.66383C6.27476 7.66383 6.70585 8.09492 6.70585 8.62181C6.70585 9.1487 6.28434 9.57979 5.74788 9.57979ZM9.57979 9.57979C9.04332 9.57979 8.62181 9.1487 8.62181 8.62181C8.62181 8.09492 9.0529 7.66383 9.57979 7.66383C10.1067 7.66383 10.5378 8.09492 10.5378 8.62181C10.5378 9.1487 10.1163 9.57979 9.57979 9.57979ZM13.4117 9.57979C12.8752 9.57979 12.4537 9.1487 12.4537 8.62181C12.4537 8.09492 12.8848 7.66383 13.4117 7.66383C13.9386 7.66383 14.3697 8.09492 14.3697 8.62181C14.3697 9.1487 13.9482 9.57979 13.4117 9.57979Z" fill="#171717"/>
</svg>
