<svg width="18" height="18" viewBox="0 0 18 18" fill="none" xmlns="http://www.w3.org/2000/svg">
<path d="M6.34832 2.59845C8.04615 1.89519 9.9538 1.89519 11.6516 2.59845C13.3494 3.30171 14.6984 4.65062 15.4016 6.34845C16.1049 8.04627 16.1049 9.95393 15.4016 11.6517C14.6984 13.3496 13.3494 14.6985 11.6516 15.4017C9.9538 16.105 8.04615 16.105 6.34832 15.4017C4.6505 14.6985 3.30159 13.3496 2.59833 11.6517C1.89506 9.95393 1.89506 8.04627 2.59833 6.34845C3.30159 4.65062 4.6505 3.30171 6.34832 2.59845Z" fill="#C2CCDE" fill-opacity="0.25"/>
<path d="M9.00239 4.01115L8.99998 0.600098L8.99756 4.01115C8.99917 4.01115 9.00078 4.01115 9.00239 4.01115Z" fill="#C2CCDE" fill-opacity="0.25"/>
<path d="M13.9889 8.99768C13.9889 8.99929 13.9889 9.0009 13.9889 9.00251L17.4 9.0001L13.9889 8.99768Z" fill="#C2CCDE" fill-opacity="0.25"/>
<path d="M9.00239 13.989C9.00078 13.989 8.99917 13.989 8.99756 13.989L8.99998 17.4001L9.00239 13.989Z" fill="#C2CCDE" fill-opacity="0.25"/>
<path d="M4.01103 9.00251C4.01103 9.0009 4.01103 8.99929 4.01103 8.99768L0.599976 9.0001L4.01103 9.00251Z" fill="#C2CCDE" fill-opacity="0.25"/>
<path d="M7.93931 6.43944C8.61844 6.15813 9.38151 6.15813 10.0606 6.43944C10.7398 6.72074 11.2793 7.26031 11.5606 7.93944C11.8419 8.61857 11.8419 9.38163 11.5606 10.0608C11.2793 10.7399 10.7398 11.2795 10.0606 11.5608C9.38151 11.8421 8.61844 11.8421 7.93931 11.5608C7.26019 11.2795 6.72062 10.7399 6.43931 10.0608C6.15801 9.38163 6.15801 8.61857 6.43931 7.93944C6.72062 7.26031 7.26019 6.72074 7.93931 6.43944Z" fill="#C2CCDE" fill-opacity="0.25"/>
<path d="M6.34832 2.59845C8.04615 1.89519 9.9538 1.89519 11.6516 2.59845C13.3494 3.30171 14.6984 4.65062 15.4016 6.34845C16.1049 8.04627 16.1049 9.95393 15.4016 11.6517C14.6984 13.3496 13.3494 14.6985 11.6516 15.4017C9.9538 16.105 8.04615 16.105 6.34832 15.4017C4.6505 14.6985 3.30159 13.3496 2.59833 11.6517C1.89506 9.95393 1.89506 8.04627 2.59833 6.34845C3.30159 4.65062 4.6505 3.30171 6.34832 2.59845Z" stroke="#171717" stroke-linecap="round" stroke-linejoin="round"/>
<path d="M9.00239 4.01115L8.99998 0.600098L8.99756 4.01115C8.99917 4.01115 9.00078 4.01115 9.00239 4.01115Z" stroke="#171717" stroke-linecap="round" stroke-linejoin="round"/>
<path d="M13.9889 8.99768C13.9889 8.99929 13.9889 9.0009 13.9889 9.00251L17.4 9.0001L13.9889 8.99768Z" stroke="#171717" stroke-linecap="round" stroke-linejoin="round"/>
<path d="M9.00239 13.989C9.00078 13.989 8.99917 13.989 8.99756 13.989L8.99998 17.4001L9.00239 13.989Z" stroke="#171717" stroke-linecap="round" stroke-linejoin="round"/>
<path d="M4.01103 9.00251C4.01103 9.0009 4.01103 8.99929 4.01103 8.99768L0.599976 9.0001L4.01103 9.00251Z" stroke="#171717" stroke-linecap="round" stroke-linejoin="round"/>
<path d="M7.93931 6.43944C8.61844 6.15813 9.38151 6.15813 10.0606 6.43944C10.7398 6.72074 11.2793 7.26031 11.5606 7.93944C11.8419 8.61857 11.8419 9.38163 11.5606 10.0608C11.2793 10.7399 10.7398 11.2795 10.0606 11.5608C9.38151 11.8421 8.61844 11.8421 7.93931 11.5608C7.26019 11.2795 6.72062 10.7399 6.43931 10.0608C6.15801 9.38163 6.15801 8.61857 6.43931 7.93944C6.72062 7.26031 7.26019 6.72074 7.93931 6.43944Z" stroke="#171717" stroke-linecap="round" stroke-linejoin="round"/>
</svg>
