<svg width="10" height="10" viewBox="0 0 10 10" fill="none" xmlns="http://www.w3.org/2000/svg">
<g clip-path="url(#clip0_291_6793)">
<path d="M4.58337 1.6665H1.66671C1.44569 1.6665 1.23373 1.7543 1.07745 1.91058C0.921171 2.06686 0.833374 2.27882 0.833374 2.49984V8.33317C0.833374 8.55418 0.921171 8.76615 1.07745 8.92243C1.23373 9.07871 1.44569 9.1665 1.66671 9.1665H7.50004C7.72105 9.1665 7.93302 9.07871 8.0893 8.92243C8.24558 8.76615 8.33337 8.55418 8.33337 8.33317V5.4165" stroke="#414141" stroke-linecap="round" stroke-linejoin="round"/>
<path d="M7.70837 1.0416C7.87413 0.875838 8.09895 0.782715 8.33337 0.782715C8.56779 0.782715 8.79261 0.875838 8.95837 1.0416C9.12413 1.20736 9.21726 1.43218 9.21726 1.6666C9.21726 1.90102 9.12413 2.12584 8.95837 2.2916L5.00004 6.24993L3.33337 6.6666L3.75004 4.99993L7.70837 1.0416Z" stroke="#414141" stroke-linecap="round" stroke-linejoin="round"/>
</g>
<defs>
<clipPath id="clip0_291_6793">
<rect width="10" height="10" fill="white"/>
</clipPath>
</defs>
</svg>
