<svg width="18" height="18" viewBox="0 0 18 18" fill="none" xmlns="http://www.w3.org/2000/svg">
<path d="M5.7164 2.18112C7.79148 1.18181 10.2087 1.18181 12.2838 2.18112C14.3589 3.18043 15.866 5.07028 16.3785 7.31571C16.891 9.56114 16.3531 11.9177 14.9171 13.7184C13.4811 15.5191 11.3033 16.5679 9.00009 16.5679C6.69692 16.5679 4.51909 15.5191 3.08308 13.7184C1.64708 11.9177 1.1092 9.56114 1.6217 7.31571C2.13421 5.07028 3.64131 3.18043 5.7164 2.18112Z" fill="#C2CCDE" fill-opacity="0.25"/>
<path d="M6.90009 7.19978C6.90009 7.53115 6.63146 7.79978 6.30009 7.79978C5.96872 7.79978 5.70009 7.53115 5.70009 7.19978C5.70009 6.86841 5.96872 6.59978 6.30009 6.59978C6.63146 6.59978 6.90009 6.86841 6.90009 7.19978Z" fill="#C2CCDE" fill-opacity="0.25"/>
<path d="M12.3001 7.19978C12.3001 7.53115 12.0315 7.79978 11.7001 7.79978C11.3687 7.79978 11.1001 7.53115 11.1001 7.19978C11.1001 6.86841 11.3687 6.59978 11.7001 6.59978C12.0315 6.59978 12.3001 6.86841 12.3001 7.19978Z" fill="#C2CCDE" fill-opacity="0.25"/>
<path d="M12.1821 12.1818C11.3382 13.0257 10.1936 13.4998 9.00009 13.4998C7.80662 13.4998 6.66202 13.0257 5.81811 12.1818M1.6217 7.31571C2.13421 5.07028 3.64131 3.18043 5.7164 2.18112C7.79148 1.18181 10.2087 1.18181 12.2838 2.18112C14.3589 3.18043 15.866 5.07028 16.3785 7.31571C16.891 9.56114 16.3531 11.9177 14.9171 13.7184C13.4811 15.5191 11.3033 16.5679 9.00009 16.5679C6.69692 16.5679 4.51909 15.5191 3.08308 13.7184C1.64708 11.9177 1.1092 9.56114 1.6217 7.31571ZM6.90009 7.19978C6.90009 7.53115 6.63146 7.79978 6.30009 7.79978C5.96872 7.79978 5.70009 7.53115 5.70009 7.19978C5.70009 6.86841 5.96872 6.59978 6.30009 6.59978C6.63146 6.59978 6.90009 6.86841 6.90009 7.19978ZM12.3001 7.19978C12.3001 7.53115 12.0315 7.79978 11.7001 7.79978C11.3687 7.79978 11.1001 7.53115 11.1001 7.19978C11.1001 6.86841 11.3687 6.59978 11.7001 6.59978C12.0315 6.59978 12.3001 6.86841 12.3001 7.19978Z" stroke="#414141" stroke-linecap="round" stroke-linejoin="round"/>
</svg>
