<svg width="12" height="14" viewBox="0 0 12 14" fill="none" xmlns="http://www.w3.org/2000/svg">
<path d="M1.33341 7L4.00008 4.33333M1.33341 7L4.00008 9.66667M1.33341 7H8.00008M4.66675 13C5.45468 13 6.2349 12.8448 6.96285 12.5433C7.6908 12.2417 8.35224 11.7998 8.90939 11.2426C9.46654 10.6855 9.9085 10.0241 10.21 9.2961C10.5116 8.56815 10.6667 7.78793 10.6667 7C10.6667 6.21207 10.5116 5.43185 10.21 4.7039C9.9085 3.97595 9.46654 3.31451 8.90939 2.75736C8.35224 2.20021 7.6908 1.75825 6.96285 1.45672C6.2349 1.15519 5.45468 1 4.66675 1" stroke="#414141" stroke-linecap="round" stroke-linejoin="round"/>
</svg>
