<svg width="24" height="24" viewBox="0 0 24 24" fill="none" xmlns="http://www.w3.org/2000/svg">
<path d="M16.8151 13.5892L16.4082 13.2985L16.8151 13.5892ZM12.0119 20.3137L12.4187 20.6043L12.4187 20.6043L12.0119 20.3137ZM11.9881 20.3137L11.5813 20.6043L11.5813 20.6043L11.9881 20.3137ZM7.18491 13.5892L6.77805 13.8798H6.77805L7.18491 13.5892ZM13.1727 7.13081L13.3897 6.68032V6.68032L13.1727 7.13081ZM14.6351 8.96459L14.1477 9.07585V9.07585L14.6351 8.96459ZM9.36486 8.96459L8.87739 8.85333L9.36486 8.96459ZM9.88678 11.2513L9.49586 11.563L9.88678 11.2513ZM14.1132 11.2513L14.5041 11.563L14.1132 11.2513ZM18.5 9.53027C18.5 5.94042 15.5898 3.03027 12 3.03027V4.03027C15.0376 4.03027 17.5 6.49271 17.5 9.53027H18.5ZM18.5 9.89167V9.53027H17.5V9.89167H18.5ZM17.2219 13.8798C18.0532 12.7161 18.5 11.3217 18.5 9.89167H17.5C17.5 11.1133 17.1183 12.3044 16.4082 13.2985L17.2219 13.8798ZM12.4187 20.6043L17.2219 13.8798L16.4082 13.2985L11.605 20.0231L12.4187 20.6043ZM11.5813 20.6043C11.7865 20.8916 12.2135 20.8916 12.4187 20.6043L11.605 20.0231C11.7986 19.752 12.2014 19.752 12.395 20.0231L11.5813 20.6043ZM6.77805 13.8798L11.5813 20.6043L12.395 20.0231L7.59178 13.2985L6.77805 13.8798ZM5.5 9.89167C5.5 11.3217 5.94684 12.7161 6.77805 13.8798L7.59178 13.2985C6.88171 12.3044 6.5 11.1133 6.5 9.89167H5.5ZM5.5 9.53027V9.89167H6.5V9.53027H5.5ZM12 3.03027C8.41015 3.03027 5.5 5.94042 5.5 9.53027H6.5C6.5 6.49271 8.96243 4.03027 12 4.03027V3.03027ZM12.9558 7.58129C13.5598 7.87217 13.9985 8.42226 14.1477 9.07585L15.1226 8.85333C14.9057 7.90304 14.2679 7.10324 13.3897 6.68032L12.9558 7.58129ZM11.0442 7.58129C11.6482 7.29042 12.3518 7.29042 12.9558 7.58129L13.3897 6.68032C12.5115 6.25741 11.4885 6.25741 10.6103 6.68032L11.0442 7.58129ZM9.85232 9.07585C10.0015 8.42226 10.4402 7.87217 11.0442 7.58129L10.6103 6.68032C9.73211 7.10324 9.09429 7.90304 8.87739 8.85333L9.85232 9.07585ZM10.2777 10.9395C9.85971 10.4154 9.70315 9.72944 9.85232 9.07585L8.87739 8.85333C8.6605 9.80361 8.88813 10.801 9.49586 11.563L10.2777 10.9395ZM12 11.7689C11.3296 11.7689 10.6957 11.4637 10.2777 10.9395L9.49586 11.563C10.1036 12.3251 11.0253 12.7689 12 12.7689L12 11.7689ZM13.7223 10.9395C13.3043 11.4637 12.6704 11.7689 12 11.7689L12 12.7689C12.9747 12.7689 13.8964 12.3251 14.5041 11.563L13.7223 10.9395ZM14.1477 9.07585C14.2969 9.72944 14.1403 10.4154 13.7223 10.9395L14.5041 11.563C15.1119 10.801 15.3395 9.80361 15.1226 8.85333L14.1477 9.07585Z" fill="#414141"/>
</svg>
