<svg width="24" height="24" viewBox="0 0 24 24" fill="none" xmlns="http://www.w3.org/2000/svg">
<path d="M8.55585 3.68508C10.7611 2.77164 13.2389 2.77164 15.4442 3.68508C17.6494 4.59853 19.4015 6.3506 20.3149 8.55585C21.2284 10.7611 21.2284 13.2389 20.3149 15.4441C19.4015 17.6494 17.6494 19.4015 15.4442 20.3149C13.2389 21.2284 10.7611 21.2284 8.55585 20.3149C6.3506 19.4015 4.59853 17.6494 3.68508 15.4442C2.77164 13.2389 2.77164 10.7611 3.68508 8.55585C4.59853 6.3506 6.3506 4.59853 8.55585 3.68508Z" fill="#C2CCDE" fill-opacity="0.25"/>
<path d="M16.0914 12.1647H7.9735M12.0325 16.2237V8.10575M3.68508 8.55585C4.59853 6.3506 6.3506 4.59853 8.55585 3.68508C10.7611 2.77164 13.2389 2.77164 15.4442 3.68508C17.6494 4.59853 19.4015 6.3506 20.3149 8.55585C21.2284 10.7611 21.2284 13.2389 20.3149 15.4442C19.4015 17.6494 17.6494 19.4015 15.4442 20.3149C13.2389 21.2284 10.7611 21.2284 8.55585 20.3149C6.3506 19.4015 4.59853 17.6494 3.68508 15.4442C2.77164 13.2389 2.77164 10.7611 3.68508 8.55585Z" stroke="#5A5A5A" stroke-linecap="round" stroke-linejoin="round"/>
</svg>
