<svg width="24" height="24" viewBox="0 0 24 24" fill="none" xmlns="http://www.w3.org/2000/svg">
    <path
        d="M8 12H7.4H8ZM16 12H16.6H16ZM12 16V16.6V16ZM14.0694 21.7856L14.193 22.3728L14.0694 21.7856ZM9.9306 21.7856L9.80705 22.3728L9.9306 21.7856ZM2.73861 8.22119L2.18315 7.99433H2.18315L2.73861 8.22119ZM2.21438 14.0694L1.62724 14.1929L2.21438 14.0694ZM9.9306 2.21438L9.80705 1.62724L9.9306 2.21438ZM14.0694 2.21438L14.193 1.62724L14.0694 2.21438ZM21.1808 8.25728L21.355 8.83145L21.1808 8.25728ZM2.81797 8.25692L2.99213 7.68275L2.81797 8.25692ZM20.707 8.45063C21.1536 9.545 21.4 10.743 21.4 12H22.6C22.6 10.5849 22.3224 9.23306 21.818 7.99722L20.707 8.45063ZM21.4 12C21.4 12.6677 21.3305 13.3185 21.1985 13.9459L22.3728 14.193C22.5218 13.4849 22.6 12.7512 22.6 12H21.4ZM21.1985 13.9459C20.4348 17.5753 17.5753 20.4348 13.9459 21.1985L14.193 22.3728C18.2879 21.5111 21.5111 18.2879 22.3728 14.193L21.1985 13.9459ZM13.9459 21.1985C13.3185 21.3305 12.6677 21.4 12 21.4V22.6C12.7513 22.6 13.4849 22.5218 14.193 22.3728L13.9459 21.1985ZM12 21.4C11.3323 21.4 10.6815 21.3305 10.0541 21.1985L9.80705 22.3728C10.5151 22.5218 11.2488 22.6 12 22.6V21.4ZM2.6 12C2.6 10.742 2.8468 9.54312 3.29406 8.44806L2.18315 7.99433C1.67807 9.23095 1.4 10.5837 1.4 12H2.6ZM10.0541 21.1985C6.42474 20.4348 3.56522 17.5753 2.80152 13.9459L1.62724 14.1929C2.48889 18.2879 5.71212 21.5111 9.80705 22.3728L10.0541 21.1985ZM2.80152 13.9459C2.66953 13.3185 2.6 12.6677 2.6 12H1.4C1.4 12.7512 1.47825 13.4849 1.62724 14.1929L2.80152 13.9459ZM3.29406 8.44806C4.4579 5.59857 6.98051 3.44828 10.0541 2.80152L9.80705 1.62724C6.33771 2.35726 3.4952 4.78197 2.18315 7.99433L3.29406 8.44806ZM10.0541 2.80152C10.6815 2.66953 11.3323 2.6 12 2.6V1.4C11.2488 1.4 10.5151 1.47825 9.80705 1.62724L10.0541 2.80152ZM12 2.6C12.6677 2.6 13.3185 2.66953 13.9459 2.80153L14.193 1.62724C13.4849 1.47825 12.7512 1.4 12 1.4V2.6ZM13.9459 2.80153C17.0204 3.44848 19.5436 5.59986 20.707 8.45063L21.818 7.99722C20.5065 4.78343 17.6633 2.35748 14.193 1.62724L13.9459 2.80153ZM13.4978 2.39677C13.7741 3.26282 14.799 6.59909 15.2194 9.66849L16.4083 9.50562C15.973 6.32743 14.9206 2.90838 14.641 2.032L13.4978 2.39677ZM15.2194 9.66849C15.3322 10.4918 15.4 11.2854 15.4 12H16.6C16.6 11.2144 16.5259 10.3636 16.4083 9.50562L15.2194 9.66849ZM21.0067 7.6831C19.9068 8.0167 17.8395 8.60309 15.705 8.99702L15.9228 10.1771C18.1205 9.77149 20.2362 9.17079 21.355 8.83145L21.0067 7.6831ZM15.705 8.99702C14.4108 9.23588 13.1126 9.4 12 9.4V10.6C13.2163 10.6 14.5949 10.4222 15.9228 10.1771L15.705 8.99702ZM15.4 12C15.4 13.0579 15.2516 14.2842 15.0313 15.5163L16.2126 15.7275C16.439 14.4612 16.6 13.1574 16.6 12H15.4ZM15.0313 15.5163C14.5484 18.2173 13.7376 20.8517 13.4978 21.6032L14.641 21.968C14.8858 21.2007 15.7156 18.507 16.2126 15.7275L15.0313 15.5163ZM21.6032 13.4978C20.8517 13.7376 18.2173 14.5484 15.5163 15.0313L15.7275 16.2126C18.507 15.7156 21.2007 14.8858 21.968 14.641L21.6032 13.4978ZM15.5163 15.0313C14.2843 15.2516 13.0579 15.4 12 15.4V16.6C13.1574 16.6 14.4612 16.439 15.7275 16.2126L15.5163 15.0313ZM12 15.4C10.9421 15.4 9.71575 15.2516 8.48367 15.0313L8.27246 16.2126C9.53882 16.439 10.8426 16.6 12 16.6V15.4ZM8.48367 15.0313C5.78266 14.5484 3.14834 13.7376 2.39677 13.4978L2.03199 14.641C2.79931 14.8858 5.49304 15.7156 8.27246 16.2126L8.48367 15.0313ZM7.4 12C7.4 13.1574 7.56101 14.4612 7.78743 15.7275L8.9687 15.5163C8.7484 14.2842 8.6 13.0579 8.6 12H7.4ZM7.78743 15.7275C8.28439 18.507 9.11416 21.2007 9.35899 21.968L10.5022 21.6032C10.2624 20.8517 9.45163 18.2173 8.9687 15.5163L7.78743 15.7275ZM9.35899 2.032C9.07935 2.90838 8.02705 6.32743 7.59166 9.50562L8.78055 9.66849C9.20104 6.59909 10.2259 3.26282 10.5022 2.39677L9.35899 2.032ZM7.59166 9.50562C7.47412 10.3636 7.4 11.2144 7.4 12H8.6C8.6 11.2854 8.66777 10.4918 8.78055 9.66849L7.59166 9.50562ZM12 9.4C10.8874 9.4 9.58923 9.23588 8.295 8.99702L8.07721 10.1771C9.40513 10.4222 10.7837 10.6 12 10.6V9.4ZM8.295 8.99702C6.15977 8.60295 4.09169 8.01628 2.99213 7.68275L2.64381 8.83108C3.76232 9.17036 5.87873 9.77135 8.07721 10.1771L8.295 8.99702ZM20.986 7.69143C20.9884 7.6902 20.9915 7.6887 20.9953 7.68714C20.9992 7.68558 21.003 7.68422 21.0067 7.6831L21.355 8.83145C21.4199 8.81177 21.4809 8.78658 21.539 8.75642L20.986 7.69143ZM2.42557 8.73306C2.49276 8.77415 2.56549 8.80733 2.64381 8.83108L2.99213 7.68275C3.01424 7.68946 3.03457 7.69888 3.05164 7.70933L2.42557 8.73306Z"
        fill="#8D8F9C" />
</svg>
